<svg width="68" height="68" viewBox="0 0 68 68" fill="none" xmlns="http://www.w3.org/2000/svg">
<path d="M0 34C0 52.7777 15.2223 68 34 68C52.7777 68 68 52.7777 68 34C68 15.2223 52.7777 0 34 0C15.2223 0 0 15.2223 0 34Z" fill="#7A4E3A"/>
<path d="M47.9287 41.0714C48.3191 41.4618 48.9522 41.4616 49.3428 41.0714L55.707 34.7071C56.0976 34.3166 56.0976 33.6836 55.707 33.293L49.3428 26.9288C48.9522 26.5386 48.3191 26.5384 47.9287 26.9288C47.5383 27.3192 47.5385 27.9523 47.9287 28.3428L52.5859 33.0001H14V35.0001H52.5859L47.9287 39.6573C47.5385 40.0478 47.5383 40.6809 47.9287 41.0714Z" fill="#FEF7EC"/>
</svg>
