<svg width="209" height="468" viewBox="0 0 209 468" fill="none" xmlns="http://www.w3.org/2000/svg">
<g clip-path="url(#clip0_981_1884)">
<path d="M127.776 294.543C126.882 295.052 125.87 295.301 124.872 295.523C119.826 296.653 114.662 297.27 109.494 297.361C108.959 297.37 108.264 297.261 108.21 296.44C110.175 289.352 111.781 282.052 111.677 274.583C111.713 272.736 111.6 270.894 111.482 269.052C111.341 266.819 111.2 264.587 111.06 262.354C110.905 259.922 110.746 257.472 110.075 255.249C109.58 252.853 109.086 250.457 108.587 248.061C108.038 245.402 107.484 242.734 106.463 240.198C104.961 235.374 103.45 230.524 101.181 226.009C99.1622 221.98 96.5305 218.227 93.2227 215.105C94.0394 213.068 94.5068 210.895 94.602 208.703C94.6792 206.933 94.112 204.982 94.593 203.199C97.6422 205.949 100.256 209.633 102.352 213.145C105.288 216.621 107.103 220.882 108.918 225.219C110.756 230.311 113.315 235.22 114.009 240.656C114.504 238.174 115.202 235.737 116.096 233.369C116.387 232.602 116.169 231.849 116.441 231.073C117.612 227.724 118.129 224.18 118.878 220.559C120.039 216.222 121.024 211.693 120.802 207.119C120.761 204.483 120.72 201.842 120.393 199.229C120.289 198.376 120.148 197.527 120.012 196.683C119.663 194.514 119.313 192.341 119.091 190.04C118.846 189.273 118.891 188.448 118.932 187.644C118.987 186.701 119.036 185.757 119.091 184.808C119.127 184.151 119.164 183.493 119.245 182.839C119.59 180.035 120.715 177.39 122.108 174.735C123.869 171.377 126.496 168.483 129.622 166.504C131.914 164.676 134.505 163.269 136.932 161.622C139.564 159.839 142.001 157.765 144.215 155.573C147.949 151.658 151.271 147.351 154.116 142.746C154.933 141.425 155.709 140.078 156.612 138.812C157.015 138.245 157.455 137.687 158.014 137.274C158.794 136.697 159.761 136.443 160.7 136.198C160.609 136.561 160.523 136.924 160.287 137.573C157.646 145.945 154.692 154.217 151.412 162.634C147.827 171.3 144.006 179.872 139.755 188.488C139.727 189.042 139.469 189.55 139.224 190.045C138.158 192.223 137.273 194.496 136.569 196.778C134.886 202.101 133.597 207.546 132.858 212.991C131.955 217.996 131.124 223.01 130.376 228.042C130.072 230.075 129.781 232.116 129.804 234.158C129.518 236.046 129.309 237.947 129.178 239.857C129.128 240.57 129.092 241.282 129.051 241.995C128.928 244.254 128.806 246.509 128.633 248.619C128.479 251.333 128.325 254.046 128.17 256.755C128.012 259.55 127.853 262.345 128.152 264.582C128.284 267.759 128.139 270.939 127.994 274.111C127.807 278.154 127.626 282.192 127.44 286.235C127.408 286.943 127.376 287.655 127.399 288.368C127.467 290.491 128.021 292.615 127.721 294.716" fill="#ACBF36"/>
<path d="M79.9658 258.883C80.3334 252.104 80.7009 245.325 81.0049 238.56C81.2409 237.203 81.4723 235.851 81.7083 234.494C81.9669 233.006 82.2255 231.513 82.711 230.079C83.5822 227.52 85.1477 225.247 86.8855 223.178C88.6234 221.104 90.5518 219.198 92.3351 216.979C92.9522 215.981 93.5783 214.969 93.8914 213.839C94.0276 213.354 94.1047 212.855 94.1682 212.356C94.5176 209.747 94.622 207.11 94.7853 204.288C95.1619 202.024 95.7291 199.791 96.4824 197.468C98.2384 191.864 101.796 187.014 105.566 182.372C106.882 180.58 108.47 179.005 110.049 177.435C112.178 175.325 114.306 173.211 116.456 171.101C117.509 168.941 119.633 167.353 120.191 165.084C120.699 163.782 120.812 162.366 120.921 160.973C120.998 160.002 121.071 158.99 120.79 158.128C120.291 156.145 119.782 154.13 118.766 152.22C117.881 150.863 116.892 149.566 115.78 148.254C115.104 147.655 114.419 147.047 113.63 146.607C112.972 146.24 112.241 145.99 111.533 145.872C109.795 145.423 107.962 145.364 106.283 145.904C104.205 146.566 102.059 147.265 100.462 148.808C98.6603 150.373 97.1176 152.234 95.829 154.471C94.9532 155.9 94.0729 157.348 93.5194 158.927C93.1927 159.857 92.9703 160.846 92.6073 161.681C92.5982 162.411 92.3532 163.115 92.1037 163.8C91.0147 166.813 89.8213 169.789 88.5281 172.793C86.5951 176.555 83.8363 179.89 80.533 182.372C79.4939 183.329 78.4957 184.332 77.5473 185.19C75.9093 186.914 74.4346 188.802 73.3184 190.771C72.1432 193.452 70.9861 196.143 69.7656 198.866C69.8155 199.288 69.7338 199.714 69.643 200.127C69.1711 202.228 68.3907 204.274 68.0458 206.62C67.7917 208.639 67.4696 210.65 67.1883 212.828C66.9614 215.609 67.034 218.418 67.3924 221.186C68.1093 226.703 69.9652 232.003 71.4354 237.326C71.4898 238.047 71.7484 238.741 71.9935 239.422C74.3212 245.842 76.1498 252.513 79.5711 258.42C79.6528 258.561 79.739 258.706 79.866 258.806" fill="#9DB559"/>
<path d="M79.4719 258.112C78.7005 256.442 77.675 254.899 76.9082 253.229C76.5134 252.372 76.1912 251.487 75.8691 250.602C75.5288 249.667 75.1839 248.728 74.8436 247.793C74.222 246.087 73.5958 244.381 73.133 242.439C72.838 241.985 72.6701 241.468 72.5068 240.951C72.1483 239.83 71.7853 238.709 71.4268 237.584C71.1047 236.586 70.7871 235.583 70.4967 234.576C70.1518 233.36 69.8523 232.125 69.5665 230.896C69.0174 228.527 68.5047 226.15 68.0509 223.781C67.6199 222.905 67.6199 221.893 67.511 220.922C67.3794 219.761 67.0799 218.622 66.9483 217.456C66.7124 215.35 67.0391 213.227 67.3749 211.357C67.9738 207.723 68.6862 204.106 69.512 200.544C70.0293 199.002 70.5466 197.463 71.0639 195.921C71.504 194.605 71.9487 193.28 72.6202 192.068C73.1057 191.193 73.7001 190.38 74.3036 189.673C75.5288 187.386 77.3483 185.466 79.2586 183.71C81.1689 181.954 83.2017 180.321 84.994 178.356C85.7971 177.253 86.5957 176.151 87.3989 175.048C87.9434 174.3 88.506 173.505 88.7374 172.525C88.8009 171.958 89.0868 171.45 89.35 170.946C89.9217 169.853 90.4254 168.723 90.9063 167.33C91.5507 165.293 92.1995 163.26 92.8303 161.073C92.9618 160.959 93.0208 160.778 93.0163 160.605C93.0117 160.433 92.9528 160.265 92.8847 160.106C92.7259 159.748 92.5081 159.421 92.3311 158.958C91.3011 157.098 89.6948 155.569 87.721 154.657C86.8997 154.344 86.0694 154.026 85.2072 153.849C83.061 153.413 80.7923 153.885 78.8638 154.915C78.4872 155.115 78.1197 155.342 77.7657 155.587C77.1078 156.054 76.5179 156.612 75.9371 157.17C75.4743 157.615 75.0069 158.064 74.6303 158.586C73.3144 160.397 73.2237 162.792 73.2555 164.902C73.1738 166.354 73.0921 167.806 73.0104 169.258C72.9651 170.043 72.9197 170.842 72.4432 171.591C72.3843 171.967 72.2073 172.312 72.0303 172.648C70.896 174.839 69.7117 177.104 67.7878 178.678C66.6262 180.076 65.4918 181.491 64.3847 182.934C64.0716 183.343 63.7585 183.756 63.4817 184.187C63.0642 184.836 62.7239 185.534 62.429 186.183C62.0887 186.755 61.7983 187.358 61.5669 187.985C61.1857 189.015 60.9679 190.095 60.7456 191.17C60.5913 191.932 60.4325 192.699 60.3417 193.334C59.8245 197.786 59.9424 202.287 60.0513 206.479C61.0813 209.951 60.1012 213.789 61.0496 217.134C61.7529 219.017 62.3882 220.931 62.8419 222.892C63.1187 224.094 63.3274 225.315 63.7131 226.485C64.3483 228.405 65.4555 230.174 65.8049 232.243C67.1979 234.571 67.9466 237.217 68.8904 239.758C70.4831 244.045 72.6474 248.097 74.9525 252.05C76.2094 254.205 77.5479 256.378 79.4855 257.944" fill="#709E51"/>
<path d="M105.013 302.352C105.553 301.1 106.088 299.848 106.628 298.595C106.782 298.237 106.937 297.878 107.163 297.561C107.481 297.116 107.935 296.771 108.615 296.553C109.804 296.708 110.998 296.862 112.196 296.889C114.029 296.93 115.857 296.676 117.881 296.363C120.758 295.764 123.63 295.165 126.507 294.571C126.775 294.516 127.047 294.457 127.319 294.489C127.591 294.521 127.864 294.652 127.977 294.979C128.458 295.17 128.767 295.623 129.061 296.05C130.341 297.928 131.77 299.703 133.395 301.39C136.072 304.072 138.708 306.795 141.313 309.576C145.469 313.188 148.836 317.603 152.334 321.941C155.061 325.117 157.566 328.479 159.912 331.919C161.514 334.818 162.975 337.795 164.286 340.64C166.686 346.897 168.388 353.427 169.513 360.242C170.149 363.1 170.566 366 170.979 368.899C171.424 371.985 171.864 375.152 171.26 378.356C170.688 381.482 169.831 384.558 168.674 387.517C167.975 389.305 167.158 391.079 166.972 393.207C166.092 396.628 165.883 400.181 165.393 403.684C164.903 407.187 164.105 410.731 162.167 413.861C157.126 421.548 150.71 428.336 143.255 433.972C140.038 436.504 136.58 438.736 132.846 440.619C132.519 440.801 132.192 440.978 131.866 441.155C129.157 442.602 126.284 443.75 123.208 444.617C120.608 445.102 118.122 446.241 115.73 446.318C112.091 446.781 108.389 445.778 105.113 444.131C101.836 442.484 98.9279 440.206 95.9785 437.865C92.2986 434.843 88.587 431.798 85.5378 428.109C82.9332 425.11 80.8233 421.68 79.3168 418.004C78.6045 416.257 78.0146 414.438 76.7486 412.854C76.7668 412.677 76.6624 412.518 76.558 412.373C74.5116 409.569 71.5986 407.359 70.2464 404.119C68.4994 400.775 67.3469 397.123 66.8614 393.379C66.5982 391.355 66.5256 389.309 66.0537 387.04C65.1553 380.956 64.9874 374.762 65.609 368.604C66.394 362.352 68.5176 356.272 71.839 350.672C76.0408 342.732 82.2344 336.062 88.1241 328.811C89.2131 326.81 90.8194 325.144 92.3213 323.434C95.3433 319.994 98.025 316.26 100.217 312.43C101.877 308.796 104.287 305.483 105.448 301.658" fill="#784645"/>
<path d="M80.9653 238.11C78.1657 236.967 75.1346 236.522 72.1172 236.332C75.2118 235.869 78.3472 235.687 81.469 235.796" fill="#314523"/>
<path d="M85.7268 224.394C81.9561 221.875 77.5184 220.537 73.0626 219.675C72.4773 219.561 71.8783 219.457 71.293 219.57C76.9422 219.321 82.6821 219.824 88.0273 221.662" fill="#314523"/>
<path d="M94.7921 208.313C89.0521 206.957 82.5635 207.642 76.3789 209.062C82.1415 206.612 88.3307 205.055 94.479 204.524C94.5334 205.818 94.5652 207.12 94.5697 208.422" fill="#314523"/>
<path d="M96.896 196.575C94.718 195.372 92.3857 194.342 89.94 193.503C87.8392 192.781 85.6612 192.2 83.4877 191.62C82.0312 191.229 80.561 190.839 79.0273 190.689C80.4657 190.866 81.9313 190.83 83.3879 190.88C86.4507 190.984 89.4591 191.479 92.4538 191.969C94.5638 192.314 96.6828 192.663 98.6838 193.271" fill="#314523"/>
<path d="M105.046 182.403C102.047 178.442 97.8357 175.252 93.0078 173.288C93.3799 173.269 93.752 173.356 94.1104 173.442C99.0971 174.662 103.866 176.605 108.19 179.168" fill="#314523"/>
<path d="M115.749 171.11C114.025 169.499 112.464 167.752 110.481 166.364C109.692 165.81 108.839 165.316 107.976 164.839C105.077 163.237 102.019 161.776 98.6836 160.91C100.145 161.009 101.588 161.245 102.985 161.608C104.178 161.917 105.331 162.325 106.479 162.725C107.781 163.183 109.079 163.637 110.381 164.095C111.538 164.499 112.691 164.907 113.803 165.388C115.545 166.15 117.165 167.099 118.608 168.211" fill="#314523"/>
<path d="M140.554 308.904L140.725 309.172C136.683 311.742 131.955 312.958 127.311 313.867C121.056 315.091 114.71 315.849 108.347 316.127C104.987 316.277 101.58 316.292 98.2344 315.729L98.3398 315.103C101.618 315.655 104.972 315.643 108.319 315.493L109.506 315.436C115.44 315.121 121.355 314.385 127.189 313.243C131.82 312.337 136.448 311.139 140.384 308.637L140.554 308.904Z" fill="#422626"/>
<path d="M134.037 302.106C124.497 305.083 114.308 305.977 104.398 304.7L104.48 304.07C114.299 305.335 124.394 304.45 133.848 301.501L134.037 302.106Z" fill="#422626"/>
<path d="M137.636 305.897C132.779 307.807 127.68 309.209 122.46 309.661C120.52 309.832 118.63 309.865 116.776 310.259C115.448 310.541 114.163 311.003 112.819 311.407C111.49 311.808 110.122 312.144 108.696 312.14C107.395 312.135 106.097 311.842 104.924 311.285L104.691 311.171C104.179 310.91 103.71 310.628 103.217 310.439C102.736 310.256 102.297 310.19 101.879 310.331L101.676 309.729C102.293 309.521 102.897 309.637 103.443 309.846C103.978 310.05 104.521 310.371 104.979 310.604H104.98C106.125 311.19 107.409 311.501 108.698 311.505C110.027 311.509 111.32 311.195 112.636 310.799C113.937 310.407 115.282 309.927 116.645 309.638C118.548 309.233 120.524 309.194 122.404 309.028L123.368 308.934C128.178 308.407 132.888 307.081 137.403 305.306L137.636 305.897Z" fill="#422626"/>
<path d="M144.013 312.253C140.392 314.563 136.321 315.784 132.157 316.724C127.973 317.668 123.735 318.321 119.673 319.5C116.458 320.436 113.179 321.765 109.74 321.936C107.282 322.058 104.874 321.589 102.504 321.079C100.121 320.566 97.7813 320.013 95.4023 319.931L95.4238 319.296C97.8727 319.381 100.278 319.95 102.638 320.458C105.01 320.969 107.344 321.419 109.709 321.301C113.049 321.135 116.194 319.852 119.495 318.891H119.496C123.578 317.706 127.896 317.034 132.018 316.104C136.16 315.17 140.145 313.968 143.671 311.718L144.013 312.253Z" fill="#422626"/>
<path d="M147.047 315.772C137.02 321.647 125.545 325.033 113.932 325.543C113.119 325.58 112.351 325.61 111.664 325.854L111.375 325.972C110.905 326.193 110.499 326.528 110.087 326.914C109.786 327.195 109.472 327.513 109.137 327.807L108.794 328.09C106.167 330.129 102.439 329.652 99.4355 328.625C98.6809 328.368 97.9318 328.078 97.1895 327.791C96.4452 327.502 95.7074 327.217 94.9658 326.963C93.4824 326.456 92.0026 326.083 90.4766 326.083V325.449C92.1039 325.449 93.6598 325.845 95.1709 326.362C95.9266 326.62 96.6767 326.911 97.4189 327.199C98.1631 327.487 98.9003 327.772 99.6406 328.025L100.202 328.207C103.035 329.078 106.197 329.301 108.404 327.588H108.405C108.841 327.251 109.219 326.856 109.653 326.45C110.077 326.054 110.541 325.662 111.105 325.397V325.396C111.999 324.979 113.008 324.949 113.903 324.909L114.982 324.853C126.123 324.191 137.099 320.864 146.727 315.223L147.047 315.772Z" fill="#422626"/>
<path d="M150.894 320.04L151.099 320.282C143.501 326.752 133.378 329.287 123.523 330.509L122.57 330.624C120.797 330.83 119.034 331.045 117.763 332.095C116.689 332.983 116.162 334.29 115.66 335.733C115.169 337.146 114.699 338.702 113.704 339.907C111.983 341.993 109.02 342.597 106.43 342.22C103.847 341.845 101.474 340.653 99.167 339.614C94.1546 337.358 88.9158 335.614 83.5508 334.412L83.6895 333.792C89.0964 335.003 94.3761 336.762 99.4277 339.035C101.776 340.092 104.05 341.232 106.521 341.591C108.986 341.95 111.686 341.356 113.214 339.503C114.119 338.408 114.551 336.987 115.06 335.524C115.558 334.09 116.132 332.62 117.358 331.606C118.8 330.415 120.768 330.194 122.497 329.993L123.446 329.878C133.264 328.661 143.234 326.145 150.688 319.797L150.894 320.04Z" fill="#422626"/>
<path d="M81.0098 337.492C83.1302 337.696 85.0539 338.526 86.8975 339.514C87.8187 340.007 88.7297 340.545 89.6328 341.065C90.5388 341.588 91.4416 342.095 92.3613 342.536C95.4008 343.998 98.7238 344.771 102.056 345.544C104.131 346.026 106.191 346.496 108.265 346.416L108.652 346.394C110.593 346.241 112.51 345.531 113.762 344.122C114.085 343.757 114.347 343.372 114.675 342.957C114.951 342.608 115.259 342.259 115.641 341.978L115.81 341.861C116.667 341.303 117.72 341.207 118.637 341.131L120.902 340.943C132.233 340.03 143.595 339.511 154.96 339.396C157.849 339.369 160.792 339.317 163.184 337.911L163.344 338.186L163.505 338.459C160.942 339.966 157.822 340.005 154.967 340.032C142.86 340.155 130.757 340.734 118.69 341.764L118.689 341.765C117.747 341.843 116.858 341.937 116.155 342.395H116.154C115.781 342.636 115.475 342.969 115.173 343.352C114.883 343.718 114.572 344.166 114.237 344.544L114.236 344.545C112.749 346.218 110.467 346.962 108.29 347.051H108.289C106.116 347.134 103.974 346.642 101.912 346.163C98.7995 345.441 95.6231 344.704 92.6729 343.381L92.0859 343.108C91.1433 342.656 90.2236 342.139 89.3154 341.615C88.4041 341.09 87.5073 340.56 86.5977 340.073C84.7795 339.099 82.9442 338.316 80.9492 338.125L81.0098 337.492Z" fill="#422626"/>
<path d="M76.9629 342.727C79.8966 344.826 83.0339 346.932 86.4902 346.752L86.9893 346.711C87.4885 346.657 87.9885 346.568 88.5049 346.481C89.1852 346.366 89.8903 346.258 90.6104 346.262C92.6898 346.276 94.6331 347.229 96.4473 347.978C100.863 349.801 105.608 350.819 110.384 350.963L110.877 350.971C112.024 350.973 113.128 350.826 113.898 350.148H113.899C114.112 349.962 114.294 349.74 114.494 349.492C114.689 349.251 114.902 348.984 115.157 348.753V348.752C116.282 347.742 117.905 347.683 119.266 347.714C124.57 347.84 129.812 348.862 135.016 349.792C140.23 350.725 145.412 351.567 150.646 351.358C156.166 351.137 161.575 349.75 166.901 348.154L166.993 348.458L167.084 348.762C161.748 350.361 156.276 351.769 150.671 351.993C145.36 352.205 140.116 351.35 134.904 350.417C130.008 349.542 125.144 348.599 120.233 348.382L119.251 348.349C117.871 348.317 116.499 348.402 115.582 349.224C115.37 349.415 115.19 349.642 114.988 349.891C114.793 350.133 114.577 350.398 114.317 350.625C113.365 351.464 112.05 351.611 110.863 351.607L110.364 351.598C105.512 351.452 100.692 350.418 96.2051 348.566C94.3257 347.79 92.5291 346.91 90.6064 346.897C89.9473 346.893 89.2911 346.992 88.6104 347.107C87.9375 347.22 87.2356 347.35 86.5234 347.387C82.8107 347.58 79.4951 345.32 76.5938 343.245L76.9629 342.727Z" fill="#422626"/>
<path d="M72.291 349.581C75.8767 349.973 79.0686 351.816 82.1777 353.444C85.3134 355.087 88.3732 356.516 91.793 356.245C92.593 356.181 93.3851 356.023 94.1875 355.84C94.9825 355.658 95.801 355.449 96.6182 355.293C99.1412 354.814 101.723 354.843 104.246 354.879C116.301 355.056 128.353 355.446 140.395 356.059C149.787 356.536 159.31 357.12 168.299 354.618L168.469 355.23C159.362 357.765 149.728 357.169 140.362 356.693C128.328 356.081 116.285 355.691 104.237 355.514C101.706 355.477 99.1872 355.452 96.7373 355.917C95.9348 356.07 95.1469 356.272 94.3291 356.459C93.5186 356.644 92.6906 356.811 91.8438 356.879C88.2214 357.166 85.0111 355.646 81.8828 354.008C78.7282 352.356 75.6607 350.587 72.2227 350.212L72.291 349.581Z" fill="#422626"/>
<path d="M69.5371 354.716C77.163 357.832 84.8745 360.961 93.0146 361.727C97.2631 362.128 101.521 361.877 105.801 361.48C110.072 361.084 114.381 360.542 118.687 360.374C127.207 360.041 135.871 361.163 144.377 361.735C152.901 362.308 161.293 362.335 169.361 359.848L169.549 360.455C161.364 362.977 152.876 362.943 144.335 362.369C135.775 361.793 127.187 360.678 118.711 361.008C114.428 361.176 110.158 361.714 105.859 362.113C101.569 362.51 97.2643 362.767 92.9551 362.36C84.7058 361.583 76.9079 358.414 69.2969 355.304L69.5371 354.716Z" fill="#422626"/>
<path d="M66.9355 361.021C70.9053 361.908 74.7004 363.498 78.4727 364.947C82.2569 366.4 86.0277 367.714 90.001 368.088C93.3083 368.4 96.6147 368.046 99.9531 367.592C103.281 367.14 106.651 366.586 110.034 366.517C115.396 366.41 120.637 367.514 125.841 368.715C131.056 369.919 136.228 371.218 141.504 371.532C151.29 372.113 160.928 369.287 170.394 366.466L170.575 367.076C161.128 369.891 151.383 372.755 141.467 372.166C136.125 371.848 130.892 370.533 125.698 369.334C120.493 368.133 115.321 367.046 110.047 367.152C106.71 367.219 103.391 367.766 100.038 368.222C96.6952 368.677 93.3268 369.04 89.9414 368.721C85.8742 368.338 82.0328 366.995 78.2451 365.541C74.4456 364.082 70.7086 362.514 66.7969 361.64L66.9355 361.021Z" fill="#422626"/>
<path d="M66.4961 365.698C69.1101 366.278 71.5571 367.356 73.9648 368.458C76.3817 369.564 78.7564 370.692 81.2666 371.407C86.2283 372.823 91.4702 372.564 96.7158 372.802C105.547 373.195 114.265 375.018 122.944 376.643C131.634 378.269 140.293 379.699 149.056 379.336C156.672 379.02 164.227 377.326 171.252 374.369L171.376 374.662L171.499 374.954C164.404 377.941 156.775 379.652 149.082 379.971C140.24 380.338 131.518 378.893 122.827 377.267C114.126 375.638 105.462 373.828 96.6875 373.437C91.5243 373.202 86.1486 373.46 81.0918 372.018C78.5248 371.286 76.1008 370.133 73.7002 369.035C71.2904 367.933 68.8998 366.883 66.3594 366.319L66.4961 365.698Z" fill="#422626"/>
<path d="M65.5996 372.493C72.6448 378.795 82.1536 382.279 91.6055 382.013C93.5257 381.959 95.4376 381.757 97.3604 381.537C99.2793 381.316 101.212 381.077 103.155 380.952C114.208 380.235 125.117 383.201 135.823 385.701C146.55 388.205 157.694 390.28 168.365 387.883L168.504 388.502C157.677 390.934 146.405 388.824 135.679 386.32C124.932 383.81 114.132 380.877 103.196 381.585C101.274 381.71 99.361 381.946 97.4336 382.167C95.5098 382.388 93.5732 382.593 91.623 382.648C82.0086 382.918 72.3419 379.376 65.1758 372.965L65.5996 372.493Z" fill="#422626"/>
<path d="M65.6523 383.214C70.078 383.823 74.3139 385.476 78.5049 386.949C82.7114 388.428 86.8825 389.73 91.248 389.699C92.6486 389.69 94.0451 389.542 95.4541 389.37C96.8582 389.199 98.2815 389.004 99.7109 388.91L100.343 388.876C106.868 388.588 113.321 390.325 119.668 391.501L121.114 391.761C136.074 394.346 151.385 394.083 166.617 393.814L166.629 394.45C150.916 394.727 135.043 395 119.552 392.126C113.134 390.937 106.797 389.228 100.374 389.511L99.752 389.544C98.3455 389.636 96.9483 389.827 95.5312 390C94.2957 390.151 93.0489 390.286 91.792 390.324L91.2529 390.335C86.7661 390.367 82.502 389.028 78.2939 387.549C74.0702 386.064 69.9116 384.441 65.5664 383.843L65.6523 383.214Z" fill="#422626"/>
<path d="M66.4746 389.832C71.3668 390.242 76.0451 391.981 80.6699 393.569C85.3118 395.163 89.9065 396.608 94.7051 396.501C96.3773 396.465 98.0415 396.237 99.7295 396.024C101.41 395.812 103.113 395.615 104.829 395.652H104.828C106.836 395.694 108.8 396.051 110.735 396.495C112.689 396.943 114.572 397.469 116.508 397.873C120.566 398.721 124.723 399.006 128.888 399.292C141.259 400.136 153.63 400.979 166.012 400.853L166.018 401.487C153.607 401.614 141.212 400.77 128.845 399.926C124.688 399.64 120.487 399.353 116.378 398.495C114.448 398.092 112.496 397.551 110.594 397.114C108.674 396.674 106.759 396.328 104.815 396.288C103.151 396.252 101.491 396.443 99.8086 396.655C98.1333 396.867 96.4323 397.099 94.7197 397.136C89.7946 397.246 85.1011 395.762 80.4639 394.17C75.8095 392.572 71.2172 390.867 66.4219 390.465L66.4746 389.832Z" fill="#422626"/>
<path d="M67.5195 396.388C72.0591 396.643 76.3829 398.324 80.6416 399.858C84.9203 401.4 89.1402 402.796 93.5537 402.568C95.0512 402.49 96.5308 402.224 98.0234 401.923C99.5095 401.623 101.016 401.285 102.538 401.077H102.539C107.305 400.43 112.133 401.056 116.825 401.878C124.684 403.257 132.53 405.227 140.341 406.782C148.171 408.341 156.012 409.495 163.956 409.27L163.974 409.904C155.959 410.132 148.064 408.968 140.217 407.405C132.351 405.839 124.578 403.884 116.715 402.504C112.325 401.735 107.88 401.151 103.499 401.603L102.624 401.707C101.129 401.912 99.6523 402.241 98.1484 402.545C96.651 402.847 95.1329 403.121 93.5859 403.202C89.029 403.437 84.6977 401.995 80.4268 400.456C76.1358 398.91 71.9107 397.271 67.4844 397.022L67.5195 396.388Z" fill="#422626"/>
<path d="M73.0111 407.918C80.48 408.611 87.8415 410.528 95.1488 412.655C102.465 414.784 109.717 417.12 117.007 418.673C130.525 421.555 144.336 421.666 157.924 419.106C157.942 419.085 157.962 419.063 157.98 419.042C158.01 419.007 158.037 418.976 158.055 418.954L158.063 418.944C158.061 418.947 158.057 418.953 158.053 418.961C158.053 418.962 158.053 418.963 158.052 418.964C158.092 418.883 158.165 418.818 158.26 418.794C158.43 418.752 158.602 418.855 158.645 419.025C158.667 419.113 158.644 419.184 158.639 419.2C158.631 419.226 158.622 419.246 158.617 419.255C158.606 419.275 158.595 419.292 158.589 419.3C158.576 419.319 158.561 419.338 158.549 419.353C158.524 419.384 158.49 419.423 158.461 419.456C158.431 419.492 158.403 419.524 158.383 419.548L158.368 419.568L158.367 419.569L158.368 419.567C158.369 419.565 158.372 419.562 158.375 419.556C158.378 419.552 158.385 419.54 158.392 419.524C158.395 419.517 158.418 419.467 158.418 419.397L158.16 419.709C144.452 422.308 130.516 422.203 116.875 419.294C109.555 417.735 102.263 415.386 94.9711 413.264C87.6701 411.139 80.3574 409.238 72.9525 408.551C72.7779 408.535 72.6493 408.38 72.6654 408.205C72.6816 408.031 72.8365 407.902 73.0111 407.918ZM158.034 419.009C158.032 419.015 158.031 419.022 158.029 419.03C158.031 419.021 158.033 419.012 158.036 419.003C158.035 419.005 158.034 419.007 158.034 419.009ZM158.022 419.058C158.022 419.061 158.021 419.063 158.021 419.066C158.02 419.072 158.02 419.079 158.02 419.086C158.02 419.077 158.021 419.067 158.022 419.058Z" fill="#422626"/>
<path d="M78.1328 414.956C85.9287 414.419 93.6027 417.043 100.525 420.542C102.796 421.687 104.99 422.912 107.409 423.382L107.715 423.438C109.247 423.694 110.809 423.653 112.401 423.544C114.088 423.429 115.828 423.235 117.549 423.258C121.342 423.309 125.035 424.403 128.658 425.268C135.482 426.897 142.453 427.807 149.43 428.715L149.348 429.345C142.376 428.438 135.372 427.524 128.511 425.886C124.838 425.009 121.242 423.943 117.54 423.894C115.853 423.872 114.168 424.061 112.444 424.178C110.733 424.295 109.002 424.339 107.288 424.006C105.393 423.638 103.63 422.826 101.927 421.968L100.24 421.11C93.3604 417.631 85.8068 415.064 78.1758 415.589L78.1328 414.956Z" fill="#422626"/>
<path d="M86.3945 428.384C92.3526 427.061 98.4958 428.881 104.214 430.674C109.96 432.476 115.911 434.29 121.707 433.116L122.175 433.015C123.264 432.766 124.333 432.434 125.443 432.14C126.699 431.808 127.985 431.533 129.315 431.531C131.594 431.531 133.788 432.337 135.884 432.978L135.885 432.979C138.005 433.633 140.166 434.156 142.354 434.553L142.241 435.178C140.029 434.777 137.843 434.247 135.698 433.585C133.682 432.969 131.734 432.26 129.72 432.174L129.316 432.165C128.069 432.168 126.846 432.426 125.605 432.754C124.378 433.079 123.108 433.48 121.833 433.739C115.85 434.951 109.74 433.072 104.024 431.28C98.281 429.479 92.2998 427.723 86.5332 429.004L86.3945 428.384Z" fill="#422626"/>
<path d="M95.1016 437.128C99.0095 435.465 103.463 436.053 107.485 437.054C111.542 438.062 115.455 439.453 119.537 439.462C120.345 439.462 121.149 439.41 121.976 439.374C122.795 439.339 123.628 439.321 124.462 439.396H124.461C126.703 439.591 128.824 440.448 130.804 441.424L130.663 441.709L130.523 441.993C128.565 441.028 126.529 440.214 124.406 440.029H124.405C123.615 439.958 122.816 439.974 122.003 440.009C121.397 440.035 120.778 440.072 120.157 440.089L119.537 440.098C115.352 440.089 111.306 438.658 107.332 437.67C103.333 436.675 99.0555 436.136 95.3496 437.713L95.2256 437.421L95.1016 437.128Z" fill="#422626"/>
<path d="M133.133 426.576C132.886 428.471 132.774 430.385 132.805 432.292L132.169 432.302C132.137 430.363 132.252 428.419 132.503 426.494L133.133 426.576Z" fill="#422626"/>
<path d="M136.45 427.097C136.396 428.104 136.34 429.111 136.284 430.118C136.229 431.126 136.174 432.134 136.119 433.141L135.484 433.105C135.539 432.098 135.595 431.091 135.65 430.084C135.706 429.077 135.761 428.069 135.815 427.062L136.45 427.097Z" fill="#422626"/>
<path d="M87.3129 410.574C87.2453 412.476 87.2952 414.387 87.4574 416.284L86.8246 416.339C86.6602 414.416 86.6096 412.479 86.6781 410.551L87.3129 410.574Z" fill="#422626"/>
<path d="M90.8536 411.507C90.7994 413.249 90.8268 414.991 90.9395 416.727L90.3048 416.768C90.1906 415.011 90.1641 413.249 90.2188 411.488L90.8536 411.507Z" fill="#422626"/>
<path d="M119.811 382.306C119.833 385.486 119.933 388.661 120.119 391.836L119.484 391.873C119.298 388.687 119.199 385.5 119.176 382.31L119.811 382.306Z" fill="#422626"/>
<path d="M124.321 387.816C124.388 389.418 124.454 391.02 124.522 392.621L123.889 392.648C123.821 391.047 123.753 389.444 123.687 387.843C123.62 386.241 123.552 384.64 123.484 383.038L124.119 383.011C124.187 384.613 124.254 386.215 124.321 387.816Z" fill="#422626"/>
<path d="M128.08 384.003C128.276 387.123 128.371 390.242 128.366 393.366H128.049L127.73 393.365C127.735 390.254 127.64 387.148 127.445 384.042L128.08 384.003Z" fill="#422626"/>
<path d="M87.57 367.953C87.561 369.679 87.6512 371.405 87.8405 373.121L87.5241 373.155L87.2086 373.19C87.0167 371.45 86.9251 369.699 86.9342 367.949L87.57 367.953Z" fill="#422626"/>
<path d="M89.9165 368.217C89.8364 369.754 89.9658 371.3 90.2954 372.801L89.6744 372.938C89.3325 371.381 89.1986 369.778 89.2818 368.184L89.9165 368.217Z" fill="#422626"/>
<path d="M93.4502 370.544C93.5511 371.353 93.6519 372.161 93.7539 372.971L93.4395 373.011L93.124 373.05C93.0219 372.24 92.9213 371.431 92.8203 370.622C92.7194 369.813 92.6177 369.005 92.5156 368.195L93.1465 368.115C93.2486 368.925 93.3492 369.735 93.4502 370.544Z" fill="#422626"/>
<path d="M133.079 352.76C133.122 353.751 133.166 354.743 133.209 355.734C133.254 355.77 133.282 355.808 133.296 355.832C133.315 355.866 133.328 355.9 133.336 355.931C133.349 355.983 133.361 356.074 133.321 356.172C133.299 356.226 133.258 356.289 133.187 356.335C133.114 356.381 133.037 356.394 132.974 356.39C132.778 356.377 132.673 356.24 132.63 356.146C132.592 356.063 132.584 355.978 132.583 355.917L132.581 355.918C132.536 354.874 132.49 353.831 132.444 352.787C132.399 351.744 132.354 350.7 132.309 349.656L132.943 349.629C132.989 350.672 133.034 351.716 133.079 352.76ZM132.984 355.99L132.818 355.907L132.745 355.91C132.741 355.918 132.735 355.925 132.732 355.933C132.703 356.005 132.715 356.065 132.721 356.088C132.725 356.104 132.732 356.125 132.745 356.147C132.756 356.166 132.784 356.21 132.841 356.246C132.91 356.29 133.02 356.316 133.132 356.264C133.221 356.222 133.258 356.153 133.269 356.133L132.984 355.99ZM132.749 355.904H132.812L132.763 355.88C132.757 355.888 132.753 355.896 132.749 355.904Z" fill="#422626"/>
<path d="M136.651 356.1L136.334 356.122L136.018 356.144C135.881 354.166 135.746 352.191 135.609 350.217L136.242 350.174C136.378 352.148 136.515 354.122 136.651 356.1Z" fill="#422626"/>
<path d="M140.301 351.058C140.428 352.856 140.51 354.658 140.547 356.46L140.229 356.466L139.912 356.473C139.876 354.682 139.795 352.89 139.668 351.103L140.301 351.058Z" fill="#422626"/>
<path d="M134.975 321.202C134.773 323.453 134.862 325.73 135.243 327.958L134.617 328.065C134.227 325.783 134.135 323.451 134.342 321.146L134.975 321.202Z" fill="#422626"/>
<path d="M136.874 320.687C136.721 323.03 136.846 325.387 137.246 327.699L136.933 327.754L136.62 327.808C136.212 325.446 136.084 323.039 136.24 320.646L136.874 320.687Z" fill="#422626"/>
<path d="M101.368 315.838C101.31 317.225 101.324 318.935 101.378 320.326L100.743 320.352C100.689 318.948 100.674 317.219 100.734 315.811L101.368 315.838Z" fill="#422626"/>
<path d="M103.919 315.965C103.892 317.7 103.964 319.435 104.139 321.16L103.508 321.224C103.329 319.474 103.255 317.714 103.283 315.956L103.919 315.965Z" fill="#422626"/>
<path d="M107.249 318.859C107.299 319.847 107.348 320.835 107.394 321.692L107.076 321.709L106.76 321.727C106.714 320.869 106.664 319.88 106.614 318.892C106.564 317.903 106.514 316.916 106.469 316.059L107.104 316.025C107.149 316.883 107.199 317.872 107.249 318.859Z" fill="#422626"/>
<path d="M83.4009 153.313C87.7931 153.303 92.0372 156.355 93.3853 160.544L93.0826 160.642L92.7798 160.739C91.4759 156.687 87.2592 153.756 83.0064 153.958H83.0054C78.7522 154.155 74.8261 157.466 73.9087 161.623C73.5999 163.021 73.5996 164.466 73.6001 165.953C73.6007 167.427 73.6017 168.943 73.273 170.421C72.7142 172.937 71.2996 175.029 69.6841 176.983C68.8771 177.959 68.01 178.912 67.1724 179.863C66.3316 180.817 65.5155 181.775 64.7945 182.776C61.7779 186.959 60.3147 192.251 60.4898 197.803V197.817C60.4175 203.673 60.7866 209.537 61.316 215.957C65.4513 231.192 70.7973 246.875 80.3667 259.357L80.1138 259.55L79.8618 259.744C70.207 247.15 64.8358 231.353 60.6958 216.096L60.688 216.068L60.6861 216.04C60.1554 209.608 59.782 203.714 59.854 197.823L59.8423 197.292C59.7704 191.811 61.2672 186.58 64.2788 182.404C65.0189 181.377 65.8522 180.4 66.6958 179.443C67.5426 178.482 68.3963 177.544 69.1949 176.579C70.7905 174.649 72.1271 172.65 72.6529 170.284C72.9639 168.885 72.965 167.44 72.9644 165.954C72.9638 164.48 72.9623 162.964 73.2886 161.486C74.2678 157.049 78.4358 153.535 82.9761 153.324L83.4009 153.313Z" fill="#314523"/>
<path d="M98.2022 150.547C101.496 146.733 106.857 144.177 111.773 145.65C116.114 146.948 119.069 151.043 120.42 155.272C121.395 158.312 121.709 161.689 120.673 164.759C119.529 168.149 116.897 170.774 114.444 173.236C105.369 182.348 96.2855 192.711 94.96 205.369C94.8576 206.349 94.7991 207.348 94.7363 208.358C94.6738 209.364 94.6073 210.38 94.4873 211.38C94.2473 213.379 93.7924 215.34 92.7139 217.087C92.0439 218.172 91.1787 219.09 90.2832 219.954C89.3779 220.828 88.4607 221.632 87.626 222.528C81.8657 228.703 81.209 237.952 80.877 246.544C80.7137 250.802 80.5461 255.068 80.3828 259.321L80.3526 259.32C80.3679 259.35 80.3831 259.38 80.3985 259.41L79.832 259.699C75.1104 250.438 71.4805 240.617 68.9473 229.77V229.769C68.1877 226.92 67.5921 224.032 67.0381 220.758L67.0371 220.754C66.675 218.471 66.5477 216.153 66.6895 213.464V213.448L66.6924 213.433C68.1781 203.649 69.9593 193.13 76.7276 185.733C78.112 184.218 79.6762 182.876 81.1953 181.533C82.7204 180.185 84.204 178.832 85.4629 177.276C88.546 173.472 90.1096 168.686 91.6699 163.959C93.2237 159.253 94.9057 154.359 98.2022 150.547ZM111.592 146.258C107.141 144.924 102.196 147.117 98.9873 150.619L98.6826 150.962C95.4815 154.664 93.8324 159.436 92.2735 164.158C90.7211 168.861 89.1265 173.766 85.957 177.676C84.6614 179.278 83.1413 180.661 81.6162 182.009C80.0853 183.362 78.5523 184.677 77.1963 186.161C70.5823 193.39 68.8127 203.7 67.3223 213.514C67.1841 216.154 67.311 218.423 67.6651 220.655C68.1483 223.51 68.6618 226.065 69.2881 228.553L69.5635 229.616L69.5664 229.625V229.626C71.9776 239.95 75.3885 249.336 79.7901 258.196C79.94 254.304 80.0929 250.415 80.2422 246.52C80.5726 237.97 81.2147 228.469 87.1611 222.094C88.0097 221.184 88.9685 220.342 89.8428 219.497C90.727 218.643 91.5453 217.769 92.1729 216.753C93.1815 215.12 93.6212 213.264 93.8565 211.305C93.9741 210.325 94.0399 209.326 94.1026 208.319C94.165 207.314 94.2241 206.299 94.3281 205.303C95.6797 192.397 104.929 181.888 113.994 172.786C116.469 170.302 118.983 167.781 120.071 164.556C120.989 161.836 120.795 158.827 119.985 156.024L119.815 155.466C118.499 151.346 115.654 147.473 111.592 146.258Z" fill="#717D23"/>
<path d="M93.0948 214.879C93.22 214.756 93.4212 214.758 93.5441 214.883C101.61 223.114 105.633 234.365 108.318 245.496C112.391 262.408 113.841 280.492 108.53 297.113C108.477 297.28 108.298 297.373 108.131 297.319C107.964 297.266 107.872 297.087 107.925 296.92C113.186 280.454 111.76 262.501 107.701 245.645C105.023 234.542 101.033 223.432 93.0909 215.328C92.9682 215.203 92.9699 215.002 93.0948 214.879Z" fill="#717D23"/>
<path d="M94.7212 203C94.851 202.882 95.0525 202.892 95.1704 203.022C99.1043 207.351 102.735 212.302 105.652 217.733L106.443 219.131C106.584 219.384 106.73 219.651 106.886 219.94L107.386 220.88L107.391 220.889L107.395 220.899L109.637 225.999L109.645 226.019L109.713 226.207L110.248 227.393L111.005 229.044L111.012 229.059L111.017 229.074L111.214 229.657L111.215 229.658C111.22 229.669 111.228 229.686 111.237 229.707C111.255 229.749 111.28 229.81 111.311 229.885C111.374 230.034 111.459 230.238 111.548 230.458C111.722 230.883 111.922 231.388 112.005 231.662C112.288 232.473 112.569 233.286 112.877 234.229L113.198 235.22L113.202 235.232H113.201C113.593 236.677 115.669 245.379 116.221 247.679C116.262 247.849 116.156 248.021 115.986 248.062C115.815 248.102 115.644 247.998 115.603 247.827C115.05 245.523 112.988 236.881 112.591 235.411C112.153 234.027 111.782 232.951 111.406 231.872L111.404 231.865L111.401 231.857C111.331 231.624 111.141 231.14 110.96 230.698C110.872 230.481 110.788 230.278 110.726 230.131C110.695 230.057 110.67 229.997 110.652 229.955C110.643 229.934 110.636 229.918 110.631 229.907C110.629 229.902 110.627 229.898 110.626 229.896L110.625 229.892L110.62 229.88L110.616 229.868L110.418 229.288L109.67 227.657L109.669 227.655L109.129 226.457L109.125 226.446L109.121 226.436L109.05 226.245C108.677 225.398 108.307 224.551 107.935 223.705C107.564 222.859 107.191 222.014 106.819 221.167C106.116 219.825 105.607 218.936 105.1 218.049L105.096 218.042C102.206 212.659 98.6048 207.748 94.6997 203.449C94.5818 203.319 94.5914 203.118 94.7212 203Z" fill="#717D23"/>
<path d="M160.972 136.446C157.238 148.559 152.815 160.459 147.732 172.067C144.797 178.77 141.664 185.333 138.813 192.057C133.783 203.917 130.985 223.124 129.512 242.634C128.04 262.131 127.893 281.887 128.147 294.818C128.151 294.994 128.012 295.139 127.837 295.143C127.661 295.146 127.516 295.006 127.513 294.831C127.258 281.886 127.405 262.109 128.879 242.586C130.352 223.076 133.154 203.775 138.228 191.809C141.076 185.092 144.232 178.478 147.15 171.812C152.156 160.378 156.52 148.66 160.215 136.734C159.133 136.948 158.207 137.582 157.384 138.445C156.439 139.436 155.654 140.701 154.938 141.909C150.12 150.039 144.064 157.695 136.079 162.828C134.677 163.73 133.209 164.557 131.795 165.408C130.373 166.263 128.991 167.15 127.723 168.188C121.587 173.216 118.7 181.571 119.185 189.531C119.307 191.52 119.618 193.493 119.957 195.478C120.295 197.457 120.662 199.453 120.891 201.466C121.502 206.871 120.556 213.954 119.121 220.963C117.685 227.978 115.75 234.957 114.37 240.157C114.325 240.326 114.152 240.427 113.982 240.382C113.813 240.337 113.712 240.164 113.757 239.994C115.14 234.785 117.066 227.829 118.498 220.836C119.931 213.836 120.858 206.837 120.259 201.538C120.033 199.549 119.67 197.576 119.33 195.585C118.991 193.598 118.675 191.596 118.552 189.569C118.057 181.449 120.996 172.879 127.32 167.697C128.624 166.63 130.038 165.724 131.467 164.864C132.903 164 134.342 163.189 135.735 162.294C143.604 157.236 149.599 149.673 154.391 141.586C155.106 140.38 155.924 139.056 156.925 138.007C157.928 136.955 159.14 136.153 160.643 136.036L161.109 136L160.972 136.446Z" fill="#717D23"/>
<path d="M83.7053 333.757C78.7957 333.267 73.6638 331.878 69.0719 333.689C66.9801 334.514 65.1515 335.989 63.8991 337.858C62.8555 339.415 62.2157 341.221 61.104 342.727C60.0559 344.143 58.5993 345.255 56.9567 345.894C54.5337 346.834 51.7704 346.752 49.4563 347.936C47.3917 348.994 45.9125 350.972 45.0095 353.109C44.102 355.246 43.7073 357.56 43.3125 359.847C43.9341 358.014 44.5648 356.163 45.5631 354.507C46.5613 352.85 47.977 351.376 49.7739 350.654C52.7187 349.474 56.1582 350.473 59.1574 349.438C61.7393 348.549 63.6223 346.262 64.7794 343.794C65.3557 342.559 65.8139 341.221 66.7804 340.254C68.1961 338.839 70.3923 338.548 72.3842 338.712C74.6076 338.898 76.7947 339.551 78.7549 340.622" fill="#784645"/>
<path d="M68.9561 333.393C71.3158 332.462 73.802 332.359 76.2939 332.543C77.54 332.635 78.7938 332.799 80.0371 332.97C81.2836 333.141 82.5183 333.319 83.7383 333.44L83.7061 333.757L83.6748 334.072C82.44 333.949 81.1912 333.77 79.9512 333.6C78.7081 333.429 77.4715 333.267 76.2471 333.177C73.9507 333.007 71.7188 333.092 69.6094 333.828L69.1895 333.984C67.1579 334.786 65.3805 336.219 64.1641 338.035C63.6548 338.795 63.243 339.617 62.8105 340.457C62.4352 341.186 62.0447 341.927 61.5693 342.621L61.3604 342.916C60.2765 344.38 58.7714 345.529 57.0732 346.19H57.0723C55.8273 346.673 54.4962 346.893 53.2266 347.136C51.9434 347.381 50.714 347.649 49.6016 348.219C47.6245 349.231 46.1873 351.139 45.3027 353.232V353.233C44.9057 354.168 44.611 355.14 44.3682 356.132C44.642 355.52 44.9443 354.92 45.292 354.343C46.3127 352.649 47.7752 351.115 49.6562 350.359H49.6572C51.1917 349.745 52.8451 349.701 54.4404 349.674C56.0565 349.646 57.612 349.635 59.0547 349.138C61.5233 348.287 63.3543 346.086 64.4922 343.659L64.9102 342.727C65.0518 342.408 65.1967 342.085 65.3506 341.78C65.6654 341.156 66.0398 340.546 66.5566 340.029C68.0729 338.513 70.3897 338.229 72.4111 338.394H72.4121C74.6791 338.584 76.909 339.251 78.9082 340.343L78.7559 340.622L78.6035 340.9C76.6824 339.851 74.5379 339.211 72.3584 339.028C70.3962 338.867 68.3208 339.164 67.0059 340.478C66.5563 340.928 66.218 341.471 65.918 342.066C65.6109 342.675 65.3687 343.284 65.0684 343.928V343.929C63.8921 346.438 61.9565 348.81 59.2617 349.738C57.7052 350.275 56.0407 350.283 54.4512 350.31C52.8411 350.337 51.3026 350.383 49.8926 350.948C48.1802 351.636 46.8117 353.052 45.8359 354.671C44.8585 356.293 44.2377 358.111 43.6143 359.949L43 359.793C43.3935 357.513 43.7936 355.162 44.7178 352.985L44.8975 352.578C45.8316 350.552 47.2951 348.686 49.3125 347.653L49.5391 347.542C50.6779 347.003 51.9048 346.741 53.1074 346.512C54.4034 346.264 55.665 346.055 56.8428 345.599L57.1377 345.477C58.6037 344.845 59.9004 343.82 60.8496 342.538C61.3884 341.808 61.8164 341.001 62.2461 340.166C62.6722 339.338 63.1016 338.478 63.6357 337.682C64.9239 335.759 66.8043 334.243 68.9561 333.394V333.393Z" fill="#422626"/>
<path d="M69.1407 355.396C65.2884 355.024 61.5949 357.147 58.8043 359.829C58.0057 360.596 57.2479 361.431 56.7488 362.415C56.1453 363.595 55.9275 364.956 55.1925 366.059C54.1715 367.593 52.3021 368.405 51.3084 369.957C49.8155 372.294 50.8319 375.456 52.479 377.689C53.3321 378.85 54.353 379.912 54.9656 381.219C55.7642 382.92 55.7778 384.967 55.0064 386.682C54.235 388.393 52.6923 389.74 50.8909 390.276C52.8556 389.872 54.8885 389.359 56.4131 388.057C58.9813 385.861 59.3488 381.645 57.4294 378.868C56.4403 377.439 54.9293 376.309 54.4302 374.644C53.9174 372.947 54.6434 371.037 55.9548 369.843C56.7488 369.122 57.7562 368.6 58.3415 367.697C58.8724 366.876 58.9813 365.85 59.4214 364.979C60.0703 363.695 61.3907 362.856 62.7746 362.465C64.1585 362.075 65.6196 362.071 67.0535 362.071" fill="#784645"/>
<path d="M58.5847 359.6C61.4037 356.891 65.185 354.695 69.1716 355.08L69.111 355.712C65.3933 355.353 61.7871 357.404 59.0251 360.058C58.2344 360.817 57.5075 361.623 57.0329 362.559L57.0319 362.561C56.7426 363.126 56.5461 363.734 56.32 364.372C56.0976 364.999 55.8489 365.649 55.4577 366.235C54.9162 367.049 54.1534 367.665 53.4421 368.247C52.8074 368.767 52.2113 369.261 51.7605 369.863L51.5769 370.128C50.8865 371.209 50.7659 372.494 51.028 373.8C51.2905 375.107 51.9334 376.413 52.7351 377.5L52.736 377.501C53.165 378.085 53.6094 378.609 54.0651 379.206C54.5087 379.787 54.9332 380.4 55.2536 381.084L55.4011 381.423C56.0443 383.022 56.057 384.861 55.4392 386.471L55.2966 386.813C54.8544 387.793 54.1704 388.657 53.3337 389.333C54.3933 388.987 55.3814 388.521 56.2077 387.815L56.4294 387.615C58.6613 385.485 58.9468 381.622 57.1687 379.049C56.6851 378.35 56.0884 377.744 55.5036 377.05C54.9328 376.372 54.3956 375.633 54.1267 374.736L54.0788 374.563C53.6215 372.77 54.4041 370.826 55.7419 369.608L56.0583 369.337C56.3838 369.072 56.7292 368.826 57.031 368.589C57.4475 368.261 57.8123 367.931 58.0759 367.524L58.1618 367.383C58.3532 367.046 58.4832 366.67 58.613 366.261C58.7576 365.805 58.9039 365.3 59.1384 364.836C59.8402 363.447 61.2515 362.565 62.6892 362.159C64.1222 361.755 65.6276 361.753 67.0544 361.753V362.389C65.6135 362.389 64.1959 362.395 62.861 362.771C61.5312 363.147 60.3017 363.943 59.7058 365.122C59.5002 365.529 59.3711 365.973 59.2185 366.453C59.0697 366.921 58.8997 367.42 58.6091 367.869C58.2874 368.365 57.8555 368.748 57.4235 369.088C56.9776 369.438 56.5562 369.727 56.1696 370.078C55.0057 371.137 54.3502 372.776 54.6599 374.258L54.7351 374.552C54.9654 375.32 55.4334 375.979 55.99 376.64C56.5325 377.284 57.1856 377.957 57.6911 378.688C59.6944 381.586 59.3231 385.986 56.6198 388.298C55.0262 389.659 52.9171 390.184 50.9558 390.587L50.8015 389.972C52.5143 389.463 53.9841 388.178 54.7175 386.552L54.8464 386.242C55.4465 384.678 55.39 382.87 54.6784 381.354C54.3864 380.731 53.9945 380.159 53.5612 379.592C53.1403 379.041 52.6472 378.454 52.2233 377.877C51.3786 376.732 50.6902 375.34 50.406 373.925C50.1213 372.507 50.2393 371.042 51.0417 369.786C51.5701 368.961 52.3268 368.339 53.0398 367.755C53.7667 367.16 54.4491 366.603 54.9284 365.883C55.2723 365.367 55.5003 364.784 55.7214 364.16C55.9387 363.547 56.1525 362.884 56.4665 362.271C56.9902 361.238 57.7787 360.374 58.5847 359.6Z" fill="#422626"/>
<path d="M75.686 411.207C73.1359 416.13 69.2836 420.332 64.7507 423.522C61.6561 425.7 58.0805 427.456 54.3008 427.442C56.9643 427.528 59.6414 427.615 62.2823 427.27C64.9231 426.925 67.5503 426.122 69.7192 424.57C73.1405 422.129 75.0825 418.109 78.1907 415.282" fill="#784645"/>
<path d="M75.6846 411.207L75.9668 411.354C73.3909 416.326 69.5025 420.565 64.9326 423.781C62.8769 425.228 60.592 426.503 58.1621 427.199C59.53 427.192 60.8906 427.131 62.2402 426.955C64.8481 426.615 67.42 425.823 69.5332 424.312H69.5342C71.2038 423.12 72.5202 421.538 73.8213 419.875C75.114 418.223 76.3965 416.483 77.9756 415.047L78.1895 415.281L78.4033 415.517C76.8743 416.907 75.6319 418.592 74.3213 420.267C73.0193 421.93 71.6544 423.579 69.9033 424.828C67.6787 426.42 64.996 427.236 62.3223 427.585C59.6516 427.934 56.9481 427.846 54.2891 427.76L54.3008 427.125C57.9837 427.138 61.4931 425.425 64.5664 423.262C69.0622 420.098 72.8792 415.934 75.4033 411.061L75.6846 411.207Z" fill="#422626"/>
<path d="M86.1728 428.554C86.0049 429.901 85.1972 431.072 84.4122 432.179C83.1554 433.958 81.8939 435.741 80.5055 437.425C79.5662 438.563 78.5589 439.666 77.3338 440.487C76.2538 441.209 75.0287 441.694 73.7854 442.066C71.916 442.62 69.9739 442.919 68.0273 442.96C70.523 443.051 73.0231 443.146 75.5188 443.092C76.6214 443.069 77.7467 443.015 78.7767 442.625C81.1543 441.726 82.5292 439.299 83.7952 437.093C85.0611 434.888 86.6855 432.538 89.1766 432.02" fill="#784645"/>
<path d="M86.4883 428.593C86.309 430.032 85.4491 431.266 84.6719 432.362C83.416 434.14 82.1482 435.933 80.751 437.627C79.8073 438.771 78.7756 439.903 77.5107 440.751C76.3945 441.497 75.136 441.994 73.877 442.371C73.3575 442.525 72.8308 442.657 72.3018 442.772C73.3729 442.792 74.4428 442.798 75.5117 442.774C76.6158 442.752 77.6912 442.696 78.6641 442.327C79.7812 441.905 80.6766 441.119 81.4551 440.15C82.2358 439.179 82.8838 438.043 83.5195 436.936C84.1556 435.828 84.8938 434.662 85.7959 433.706C86.6996 432.748 87.7829 431.985 89.1123 431.709L89.2412 432.331C88.0797 432.572 87.1055 433.244 86.2578 434.142C85.4085 435.041 84.7001 436.154 84.0703 437.251C83.4402 438.349 82.7678 439.53 81.9502 440.548C81.1304 441.568 80.149 442.445 78.8887 442.921C78.0734 443.23 77.2084 443.338 76.3623 443.382L75.5254 443.409C73.0189 443.464 70.509 443.368 68.0156 443.277L68.0205 442.643C69.9388 442.602 71.8525 442.307 73.6943 441.762C74.9215 441.394 76.1138 440.921 77.1572 440.224L77.377 440.071C78.465 439.295 79.3844 438.285 80.2607 437.223C81.6405 435.55 82.8954 433.775 84.1533 431.995C84.9458 430.877 85.7009 429.77 85.8574 428.515L86.4883 428.593Z" fill="#422626"/>
<path d="M94.4459 436.645C92.7307 437.321 91.3331 438.754 90.6979 440.488C90.0672 442.217 90.2078 444.218 91.0836 445.842C92.0183 447.58 93.7335 448.896 94.2371 450.802C94.8724 453.202 93.248 455.761 91.0518 456.909C92.3178 456.546 93.5202 455.956 94.5729 455.167C95.19 454.708 95.7708 454.168 96.102 453.474C96.7917 452.045 96.279 450.325 95.5167 448.932C94.7544 447.539 93.7335 446.255 93.3432 444.717C92.6989 442.18 94.1146 439.285 96.5104 438.237" fill="#784645"/>
<path d="M94.4463 436.645L94.5625 436.94C93.034 437.543 91.7683 438.781 91.1182 440.291L90.9961 440.597C90.4339 442.138 90.5165 443.91 91.2148 445.397L91.3633 445.691C91.8141 446.53 92.4496 447.261 93.0732 448.064C93.6852 448.853 94.2747 449.702 94.5439 450.721C95.0231 452.532 94.3099 454.391 93.0576 455.753C93.5196 455.506 93.9643 455.226 94.3828 454.912L94.3838 454.911C94.9865 454.464 95.5177 453.961 95.8154 453.337L95.8164 453.336C96.4352 452.053 95.9897 450.458 95.2383 449.085C94.8549 448.384 94.4331 447.757 94.0156 447.038C93.6616 446.429 93.3343 445.789 93.1201 445.096L93.0352 444.795C92.3526 442.108 93.8447 439.057 96.3828 437.946L96.5107 438.237L96.6377 438.528C94.3844 439.514 93.0453 442.253 93.6514 444.639C93.8358 445.365 94.1716 446.042 94.5654 446.72C94.9464 447.376 95.4161 448.087 95.7949 448.779C96.5677 450.191 97.1471 452.035 96.3877 453.61L96.3887 453.611C96.024 454.375 95.3939 454.953 94.7627 455.422C93.6785 456.235 92.4411 456.841 91.1396 457.214L88.1328 458.076L90.9043 456.628C93.0153 455.524 94.515 453.095 93.9297 450.883C93.6953 449.996 93.1764 449.233 92.5713 448.453C91.9778 447.688 91.2876 446.892 90.8037 445.992C89.885 444.288 89.7378 442.192 90.3994 440.379L90.5342 440.041C91.2507 438.375 92.642 437.014 94.3291 436.349L94.4463 436.645Z" fill="#422626"/>
<path d="M152.77 322.413C156.654 322.1 160.479 321.029 163.964 319.282C167.217 317.653 170.293 315.402 173.896 314.921C176.632 314.558 179.445 315.28 181.837 316.659C183.915 317.853 185.707 319.536 187.032 321.533C183.293 318.583 178.139 316.872 173.701 318.597C171.999 319.255 170.511 320.371 168.832 321.083C167.131 321.805 165.275 322.086 163.537 322.726C160.878 323.706 158.541 325.535 156.949 327.876" fill="#784645"/>
<path d="M174.382 314.55C177.029 314.329 179.706 315.064 181.993 316.384L182.388 316.618C184.341 317.818 186.027 319.446 187.295 321.356L188.394 323.013L186.834 321.782C183.143 318.87 178.107 317.225 173.814 318.892C172.988 319.212 172.209 319.645 171.413 320.096C170.623 320.543 169.814 321.011 168.954 321.376C168.081 321.746 167.173 322.002 166.279 322.242C165.379 322.484 164.497 322.71 163.645 323.024C161.048 323.981 158.764 325.768 157.209 328.055L156.684 327.697C158.313 325.301 160.704 323.431 163.425 322.428C164.31 322.102 165.227 321.868 166.114 321.629C167.008 321.388 167.878 321.142 168.706 320.791C169.525 320.443 170.3 319.996 171.1 319.543C171.893 319.093 172.709 318.639 173.584 318.301L174.016 318.144C177.836 316.855 182.08 317.944 185.522 320.087C184.423 318.836 183.121 317.764 181.677 316.934C179.334 315.583 176.59 314.883 173.936 315.235C172.186 315.469 170.553 316.134 168.94 316.954C168.134 317.364 167.338 317.81 166.534 318.259C165.733 318.706 164.924 319.154 164.104 319.565C160.582 321.33 156.718 322.413 152.793 322.729L152.742 322.096C156.585 321.786 160.371 320.727 163.819 318.998L164.422 318.688C165.024 318.373 165.622 318.04 166.225 317.704C167.025 317.257 167.834 316.804 168.653 316.388C170.292 315.555 172 314.854 173.853 314.606L174.382 314.55Z" fill="#422626"/>
<path d="M159.504 332.109C162.912 330.966 166.628 330.762 170.14 331.519C172.345 331.996 174.455 332.84 176.656 333.343C178.48 333.756 180.358 333.933 182.228 333.861C185.036 333.752 187.936 333.103 190.604 333.997C191.861 334.419 192.986 335.168 193.98 336.048C194.329 336.356 194.665 336.688 194.896 337.091C195.377 337.935 195.323 339.002 194.987 339.914C194.647 340.826 194.057 341.615 193.472 342.391C193.948 340.994 193.571 339.369 192.605 338.253C191.638 337.137 190.137 336.538 188.662 336.579C187.664 336.606 186.693 336.901 185.703 337.028C182.223 337.482 178.843 335.88 175.394 335.213C171.038 334.369 166.401 335.063 162.485 337.146" fill="#784645"/>
<path d="M159.402 331.809C162.648 330.72 166.167 330.469 169.534 331.077L170.206 331.209L170.624 331.304C171.597 331.534 172.55 331.827 173.492 332.119C174.573 332.453 175.638 332.785 176.724 333.034H176.725C178.522 333.441 180.374 333.615 182.215 333.543C182.908 333.517 183.608 333.456 184.317 333.394C185.024 333.332 185.74 333.268 186.453 333.236C187.879 333.171 189.316 333.231 190.704 333.696C192.013 334.135 193.174 334.912 194.188 335.81C194.499 336.084 194.821 336.394 195.069 336.769L195.171 336.934L195.172 336.935C195.715 337.888 195.639 339.059 195.284 340.024V340.025C194.925 340.987 194.306 341.813 193.725 342.583L192.53 344.165L193.17 342.289C193.607 341.008 193.263 339.5 192.364 338.461C191.466 337.424 190.059 336.859 188.67 336.897C188.197 336.91 187.725 336.986 187.237 337.079C186.877 337.147 186.502 337.225 186.123 337.288L185.743 337.343C183.944 337.578 182.183 337.279 180.459 336.849C178.711 336.413 177.051 335.857 175.333 335.525C171.048 334.695 166.484 335.379 162.633 337.427L162.484 337.146L162.335 336.866C166.315 334.749 171.027 334.044 175.454 334.902C177.184 335.237 178.939 335.815 180.613 336.233C182.312 336.657 183.981 336.932 185.661 336.713H185.662C186.144 336.651 186.618 336.55 187.119 336.455C187.614 336.361 188.127 336.276 188.652 336.261C190.213 336.218 191.809 336.851 192.844 338.045C193.574 338.889 193.991 340.007 193.991 341.123C194.271 340.7 194.515 340.268 194.688 339.803C195.004 338.945 195.038 337.984 194.619 337.249V337.248C194.415 336.892 194.112 336.59 193.769 336.287V336.286C192.856 335.478 191.842 334.794 190.727 334.378L190.502 334.298C189.222 333.87 187.876 333.807 186.482 333.871C185.786 333.902 185.083 333.964 184.373 334.027C183.665 334.089 182.95 334.151 182.239 334.178C180.342 334.252 178.436 334.073 176.585 333.654H176.584C175.47 333.399 174.38 333.058 173.305 332.725C172.225 332.391 171.158 332.065 170.071 331.831C166.615 331.085 162.957 331.285 159.604 332.411L159.402 331.809Z" fill="#422626"/>
<path d="M170.773 378.51C176.64 379.558 182.661 379.726 188.578 379.004C190.919 378.718 193.619 378.002 194.495 375.814C195.144 374.195 194.418 372.212 193.002 371.191C191.586 370.17 189.635 370.056 188.002 370.678C189.772 370.193 191.65 369.888 193.447 370.274C195.244 370.66 196.95 371.853 197.535 373.596C198.493 376.427 196.206 379.408 193.56 380.801C192.812 381.196 191.922 381.645 191.795 382.48C191.718 382.984 191.959 383.478 192.24 383.9C194.091 386.691 197.667 387.612 200.684 389.064C202.54 389.958 204.269 391.115 205.802 392.49C206.66 393.261 207.477 394.141 207.822 395.24C208.452 397.272 207.182 399.55 205.317 400.576C206.311 399.033 205.866 396.887 204.7 395.471C203.534 394.055 201.805 393.234 200.081 392.612C198.356 391.991 196.56 391.501 194.99 390.557C192.458 389.037 190.688 386.441 188.088 385.044C185.393 383.596 182.171 383.623 179.113 383.682C175.732 383.751 172.239 383.846 169.176 385.275" fill="#784645"/>
<path d="M189.441 370.014C190.778 369.76 192.162 369.674 193.512 369.963C195.384 370.365 197.203 371.616 197.834 373.494C198.351 375.023 197.984 376.575 197.167 377.904C196.351 379.231 195.073 380.362 193.706 381.083C193.323 381.284 192.945 381.48 192.642 381.723C192.38 381.933 192.203 382.156 192.132 382.415L192.107 382.528C192.057 382.859 192.187 383.212 192.404 383.57L192.502 383.724L192.503 383.725C193.384 385.054 194.685 385.951 196.166 386.701C196.906 387.076 197.685 387.41 198.474 387.745C199.063 387.994 199.659 388.244 200.242 388.508L200.82 388.778L201.52 389.13C202.907 389.86 204.217 390.737 205.42 391.741L206.013 392.253C206.823 392.983 207.641 393.845 208.047 394.925L208.123 395.144V395.145C208.81 397.36 207.426 399.777 205.468 400.854L204.368 401.459L205.048 400.404C205.944 399.013 205.562 397.019 204.453 395.672C203.344 394.326 201.684 393.528 199.971 392.911C198.279 392.301 196.429 391.794 194.824 390.829V390.83C193.524 390.049 192.423 388.993 191.346 387.986C190.259 386.97 189.194 386 187.936 385.324C185.652 384.097 182.966 383.958 180.271 383.982L179.117 384.001C175.726 384.069 172.301 384.167 169.309 385.563L169.174 385.275L169.039 384.988C172.173 383.526 175.735 383.433 179.104 383.365C182.148 383.306 185.456 383.271 188.236 384.764C189.578 385.485 190.698 386.511 191.779 387.522C192.734 388.415 193.657 389.295 194.697 389.996L195.151 390.285L195.441 390.453C196.904 391.267 198.539 391.72 200.187 392.314C201.922 392.94 203.72 393.784 204.943 395.269C205.921 396.456 206.439 398.161 206.052 399.664C207.292 398.56 207.987 396.851 207.517 395.335C207.199 394.323 206.438 393.491 205.588 392.726V392.725C204.077 391.371 202.372 390.231 200.544 389.35C199.798 388.991 199.018 388.665 198.227 388.33C197.438 387.996 196.641 387.653 195.879 387.267C194.356 386.496 192.943 385.537 191.974 384.076C191.685 383.643 191.383 383.061 191.479 382.432L191.521 382.242C191.64 381.811 191.925 381.484 192.244 381.228C192.605 380.939 193.044 380.713 193.41 380.52C194.688 379.847 195.876 378.791 196.626 377.572C197.375 376.354 197.672 375 197.232 373.698V373.697C196.693 372.09 195.099 370.954 193.378 370.585C193.028 370.509 192.675 370.463 192.318 370.438C192.622 370.572 192.913 370.736 193.186 370.933C194.701 372.026 195.499 374.157 194.788 375.932C194.31 377.127 193.338 377.903 192.216 378.412C191.096 378.92 189.798 379.175 188.614 379.32C182.666 380.045 176.613 379.876 170.715 378.823L170.771 378.509L170.827 378.197C176.663 379.239 182.653 379.407 188.538 378.689C189.696 378.548 190.919 378.302 191.953 377.834C192.985 377.366 193.801 376.689 194.198 375.697L194.294 375.418C194.7 374.006 194.048 372.338 192.814 371.449C191.89 370.782 190.707 370.528 189.546 370.641C189.056 370.735 188.567 370.851 188.084 370.984L187.887 370.381C188.383 370.193 188.908 370.07 189.441 370.014Z" fill="#422626"/>
<path d="M166.85 392.826C169.296 392.195 171.873 392.744 174.337 393.293C175.562 393.565 176.906 393.919 177.6 394.958C178.172 395.816 178.162 396.959 178.707 397.84C177.387 395.975 175.1 394.949 172.817 394.781C170.539 394.613 168.262 395.221 166.156 396.102" fill="#784645"/>
<path d="M166.772 392.519C169.304 391.866 171.956 392.437 174.407 392.983C175.02 393.12 175.689 393.281 176.296 393.547C176.905 393.814 177.473 394.196 177.865 394.782C178.184 395.26 178.335 395.811 178.471 396.307C178.611 396.82 178.735 397.279 178.979 397.673L178.448 398.023C177.196 396.254 175.008 395.26 172.795 395.098C170.587 394.935 168.361 395.524 166.279 396.395L166.035 395.809C168.164 394.919 170.494 394.292 172.842 394.465C174.647 394.598 176.469 395.254 177.848 396.437C177.712 395.942 177.583 395.505 177.337 395.135C177.035 394.682 176.583 394.367 176.041 394.129C175.497 393.89 174.882 393.74 174.27 393.604C171.793 393.052 169.291 392.524 166.931 393.133L166.772 392.519Z" fill="#422626"/>
<path d="M164.852 405.789C168.781 406.565 171.345 410.435 175.043 411.965C176.5 412.568 178.083 412.786 179.649 412.963C182.389 413.271 185.316 413.435 187.743 412.123C189.631 411.102 191.001 409.292 192.907 408.307C195.049 407.196 197.767 407.3 199.822 408.561C201.878 409.827 203.189 412.21 203.162 414.624C202.209 412.6 200.113 411.202 197.889 410.944C195.666 410.685 193.374 411.515 191.723 413.026C190.947 413.734 190.289 414.615 190.044 415.631C189.581 417.546 190.643 419.501 191.927 420.994C193.207 422.487 194.772 423.794 195.634 425.563C197.399 429.18 195.53 433.822 192.208 436.09C194.509 432.329 194.25 427.265 191.886 423.54C189.522 419.814 185.27 417.464 180.883 417.042C178.782 416.838 176.627 417.042 174.576 416.52C172.534 416.003 170.741 414.805 168.867 413.843C166.993 412.881 164.856 412.137 162.801 412.613" fill="#784645"/>
<path d="M164.914 405.478C166.961 405.882 168.637 407.089 170.231 408.345C171.845 409.615 173.367 410.928 175.165 411.671H175.166C176.577 412.255 178.12 412.47 179.686 412.647H179.685C182.43 412.957 185.263 413.103 187.594 411.844C188.502 411.353 189.29 410.669 190.112 409.961C190.925 409.261 191.771 408.537 192.762 408.025C195.003 406.862 197.839 406.972 199.989 408.291H199.99C202.141 409.616 203.509 412.102 203.48 414.627L203.465 416.011L202.876 414.759C201.974 412.843 199.978 411.506 197.854 411.259C195.73 411.012 193.529 411.806 191.938 413.261H191.938C191.188 413.944 190.578 414.773 190.354 415.705C189.955 417.353 190.784 419.081 191.935 420.506L192.169 420.787C192.483 421.154 192.816 421.511 193.156 421.871C193.495 422.229 193.842 422.592 194.175 422.963C194.841 423.705 195.47 424.5 195.92 425.424H195.921C197.773 429.219 195.803 434.02 192.389 436.353L191.166 437.188L191.938 435.925C194.169 432.277 193.925 427.344 191.619 423.71C189.314 420.077 185.156 417.772 180.854 417.358H180.853C179.815 417.258 178.773 417.258 177.699 417.218C176.636 417.178 175.557 417.098 174.498 416.828V416.827C173.443 416.56 172.46 416.12 171.514 415.631C171.04 415.386 170.573 415.128 170.11 414.873C169.646 414.617 169.187 414.364 168.724 414.126C166.864 413.172 164.814 412.473 162.873 412.923L162.73 412.304C164.901 411.801 167.125 412.591 169.014 413.561C169.487 413.803 169.954 414.061 170.417 414.316C170.881 414.573 171.341 414.827 171.806 415.066C172.734 415.546 173.668 415.962 174.654 416.212L174.655 416.213C175.647 416.465 176.672 416.544 177.724 416.583C178.765 416.622 179.851 416.622 180.914 416.726C185.387 417.156 189.733 419.552 192.155 423.369C194.302 426.751 194.758 431.215 193.186 434.884C195.652 432.5 196.814 428.704 195.35 425.703V425.702C194.938 424.857 194.354 424.113 193.702 423.387C193.376 423.023 193.037 422.669 192.695 422.308C192.355 421.947 192.012 421.581 191.687 421.201V421.2C190.388 419.69 189.236 417.628 189.736 415.557C190.002 414.456 190.707 413.524 191.51 412.792L191.838 412.507C193.519 411.121 195.748 410.375 197.927 410.628C199.791 410.845 201.572 411.828 202.723 413.31C202.365 411.486 201.242 409.809 199.656 408.832V408.831C197.695 407.628 195.096 407.529 193.055 408.589L193.054 408.59C192.139 409.062 191.347 409.736 190.526 410.442C189.715 411.141 188.875 411.873 187.896 412.402V412.403C185.371 413.767 182.35 413.586 179.614 413.278C178.05 413.101 176.425 412.88 174.923 412.258C173.023 411.472 171.414 410.085 169.839 408.844C168.244 407.588 166.674 406.472 164.791 406.101L164.914 405.478Z" fill="#422626"/>
<path d="M151.134 426.693C153.675 431.077 156.493 435.714 161.085 437.847C162.909 438.695 164.915 439.09 166.92 439.262C169.761 439.507 172.865 439.407 175.12 441.15C176.277 442.044 177.066 443.341 177.665 444.675C178.536 446.608 179.072 448.682 179.389 450.778C179.73 453.034 179.82 455.339 180.429 457.539C181.037 459.74 182.262 461.895 184.267 462.984C186.273 464.073 189.141 463.728 190.388 461.814C191.232 460.52 191.196 458.846 190.956 457.321C190.851 456.673 190.706 455.997 190.275 455.497C189.821 454.967 189.127 454.717 188.469 454.495C187.425 454.136 186.377 453.778 185.334 453.419C187.149 453.07 189.023 453.061 190.842 453.383C191.849 453.56 192.879 453.868 193.624 454.567C194.399 455.298 194.758 456.364 194.985 457.403C195.357 459.105 195.452 460.902 194.971 462.576C194.495 464.25 193.392 465.798 191.827 466.564C190.502 467.213 188.968 467.272 187.489 467.245C185.42 467.213 183.251 467.014 181.522 465.875C178.795 464.073 177.96 460.543 176.671 457.539C176.236 456.527 175.669 455.488 174.684 454.994C173.541 454.422 172.125 454.771 171.045 455.457C169.965 456.142 169.121 457.131 168.159 457.979C166.29 459.631 163.903 460.761 161.412 460.847C158.921 460.933 156.348 459.881 154.864 457.88C158.199 459.527 162.601 458.628 165.024 455.801C167.447 452.975 167.66 448.492 165.523 445.447C165.01 444.716 164.37 444.063 163.581 443.655C162.301 442.992 160.79 443.047 159.375 442.774C153.294 441.608 149.442 434.652 143.289 433.976" fill="#784645"/>
<path d="M151.409 426.534C153.959 430.932 156.732 435.475 161.219 437.559C162.997 438.386 164.963 438.775 166.947 438.945C168.34 439.065 169.863 439.105 171.289 439.331C172.728 439.559 174.127 439.982 175.313 440.898C176.531 441.839 177.347 443.191 177.955 444.545C178.841 446.51 179.382 448.613 179.703 450.73C179.874 451.862 179.985 453.02 180.124 454.14C180.265 455.268 180.437 456.377 180.734 457.455C181.331 459.613 182.52 461.674 184.419 462.705C185.357 463.214 186.503 463.39 187.56 463.212C188.615 463.034 189.557 462.508 190.122 461.641C190.897 460.453 190.88 458.884 190.642 457.372L190.555 456.896C190.455 456.435 190.309 456.023 190.034 455.705L190.033 455.704C189.645 455.25 189.038 455.023 188.367 454.796L188.366 454.795C187.845 454.616 187.321 454.437 186.798 454.258C186.275 454.079 185.752 453.899 185.23 453.72L184.104 453.333L185.273 453.107C187.127 452.751 189.04 452.741 190.897 453.07L191.284 453.145C192.192 453.337 193.129 453.667 193.841 454.336L193.995 454.49C194.737 455.279 195.08 456.35 195.295 457.335C195.674 459.068 195.777 460.922 195.276 462.664C194.781 464.405 193.629 466.035 191.967 466.85C190.567 467.535 188.965 467.59 187.483 467.562C185.411 467.531 183.159 467.333 181.348 466.14C179.915 465.193 178.992 463.801 178.271 462.295C177.909 461.541 177.595 460.752 177.293 459.97C176.989 459.184 176.699 458.409 176.38 457.665L176.212 457.29C175.807 456.428 175.306 455.661 174.542 455.277C173.541 454.777 172.249 455.068 171.215 455.725C170.701 456.051 170.237 456.453 169.775 456.888C169.322 457.314 168.854 457.79 168.369 458.218C166.456 459.908 164.002 461.076 161.423 461.165C158.844 461.254 156.165 460.166 154.609 458.068L153.826 457.013L155.005 457.595C158.21 459.178 162.454 458.311 164.782 455.595C167.111 452.878 167.317 448.555 165.263 445.629C164.769 444.925 164.164 444.314 163.435 443.937C162.842 443.63 162.186 443.484 161.483 443.383C160.803 443.285 160.027 443.223 159.314 443.086C156.183 442.485 153.637 440.396 151.162 438.44C148.659 436.462 146.226 434.619 143.254 434.292L143.324 433.66C146.505 434.01 149.075 435.982 151.556 437.942C154.066 439.926 156.486 441.896 159.435 442.462C160.138 442.597 160.825 442.646 161.574 442.754C162.3 442.859 163.04 443.017 163.727 443.372C164.576 443.811 165.252 444.508 165.783 445.265C168.003 448.428 167.782 453.071 165.265 456.008C163.05 458.591 159.258 459.621 156.019 458.668C157.455 459.938 159.448 460.597 161.4 460.529C163.804 460.446 166.123 459.354 167.949 457.741C168.426 457.321 168.861 456.877 169.34 456.426C169.811 455.982 170.309 455.547 170.875 455.188C171.93 454.519 173.349 454.119 174.582 454.602L174.826 454.71L175.026 454.82C175.868 455.325 176.398 456.189 176.791 457.029L176.963 457.414C177.288 458.172 177.585 458.964 177.886 459.741C178.187 460.522 178.494 461.291 178.844 462.021C179.543 463.481 180.403 464.754 181.697 465.609C183.343 466.693 185.429 466.896 187.494 466.928C188.971 466.955 190.436 466.891 191.687 466.279L191.957 466.136C193.284 465.377 194.237 463.996 194.666 462.489C195.128 460.882 195.04 459.141 194.675 457.471C194.451 456.444 194.108 455.46 193.406 454.799C192.816 454.245 192.013 453.95 191.157 453.768L190.787 453.695C189.431 453.455 188.043 453.403 186.675 453.543C186.785 453.581 186.894 453.619 187.004 453.656C187.526 453.835 188.048 454.014 188.569 454.193C189.214 454.411 189.996 454.683 190.516 455.29L190.604 455.399C190.917 455.81 191.077 456.299 191.178 456.77L191.27 457.271C191.512 458.809 191.567 460.589 190.654 461.987C189.972 463.034 188.856 463.638 187.665 463.839C186.475 464.04 185.183 463.844 184.115 463.264C182.004 462.117 180.742 459.867 180.122 457.624C179.812 456.501 179.635 455.357 179.493 454.219C179.35 453.072 179.245 451.949 179.075 450.826C178.761 448.751 178.232 446.706 177.376 444.806C176.786 443.491 176.022 442.249 174.926 441.401C173.858 440.576 172.576 440.177 171.189 439.958C169.791 439.737 168.341 439.704 166.894 439.579C164.867 439.405 162.821 439.004 160.951 438.135C156.254 435.953 153.392 431.221 150.859 426.853L151.135 426.693L151.409 426.534Z" fill="#422626"/>
<path d="M128.543 295.891C128.674 295.774 128.874 295.784 128.991 295.915C132.29 299.602 135.763 303.194 139.231 306.802C142.699 310.408 146.162 314.03 149.434 317.771C155.977 325.251 161.77 333.221 165.324 342.527C167.746 348.875 168.979 355.598 170.194 362.245C171.241 367.966 172.303 373.904 171.247 379.701C170.806 382.125 170.006 384.453 169.198 386.754C168.388 389.062 167.57 391.341 167.071 393.699C166.597 395.943 166.416 398.24 166.201 400.559C166 402.725 165.77 404.908 165.236 407.039L165.125 407.465C163.64 412.942 160.141 417.616 156.45 421.834C146.893 432.765 134.853 442.144 120.729 445.719C117.29 446.59 113.625 447.116 110.105 446.338C106.408 445.519 103.197 443.339 100.175 441.191C92.4013 435.66 84.5799 429.407 80.3487 420.762C79.7104 419.458 79.1543 418.096 78.5713 416.786C77.9847 415.468 77.3645 414.187 76.585 413.002V413.001C75.6703 411.609 74.5467 410.367 73.4112 409.097C72.2815 407.833 71.1403 406.542 70.2276 405.077C68.0924 401.653 67.3789 397.569 66.754 393.665C65.2296 384.111 63.9611 374.219 66.0352 364.698C68.7856 352.073 76.9509 341.824 85.3077 331.704C93.6829 321.562 102.249 311.552 105.963 299.347C106.014 299.179 106.192 299.085 106.359 299.136C106.527 299.187 106.621 299.365 106.57 299.532C102.811 311.884 94.1479 321.997 85.7969 332.109C77.4275 342.244 69.3691 352.38 66.6563 364.833C64.6105 374.224 65.8561 384.007 67.3809 393.565L67.6221 395.035C68.2048 398.463 68.9664 401.854 70.7667 404.741C71.6462 406.153 72.7515 407.405 73.8848 408.673C75.0123 409.934 76.1697 411.213 77.1153 412.652L77.4112 413.117C78.0827 414.211 78.6345 415.366 79.1514 416.527C79.7458 417.863 80.2879 419.191 80.92 420.482C85.0739 428.97 92.7704 435.142 100.542 440.673H100.543C103.574 442.827 106.688 444.93 110.242 445.718C113.619 446.464 117.168 445.965 120.572 445.103C134.526 441.571 146.462 432.292 155.972 421.416L156.658 420.623C160.07 416.636 163.156 412.296 164.512 407.299L164.62 406.884C165.14 404.806 165.367 402.667 165.568 400.5C165.782 398.197 165.967 395.856 166.45 393.567C166.959 391.161 167.792 388.841 168.599 386.544C169.408 384.239 170.192 381.955 170.622 379.587C171.654 373.923 170.62 368.1 169.57 362.359C168.353 355.703 167.128 349.038 164.731 342.754C161.215 333.548 155.478 325.645 148.956 318.19C145.695 314.462 142.241 310.849 138.773 307.242C135.307 303.637 131.826 300.036 128.518 296.339C128.401 296.208 128.412 296.008 128.543 295.891Z" fill="#422626"/>
</g>
<defs>
<clipPath id="clip0_981_1884">
<rect width="208.3" height="467.57" fill="white"/>
</clipPath>
</defs>
</svg>
