<svg width="375" height="370" viewBox="0 0 375 370" fill="none" xmlns="http://www.w3.org/2000/svg">
<path d="M27.5996 124.99C33.7658 94.7597 34.9649 81.0464 30.854 74.2071C-0.936463 -15.3886 89.5476 -4.33126 144.245 9.40446C193.118 22.9122 287.781 60.6313 275.449 103.446C263.116 146.26 311.419 187.74 327.862 205.352C339.536 217.855 337.094 272.08 315.701 281.953C281.615 297.683 251.412 323.559 251.469 332.735C191.999 387.86 149.326 369.155 130.371 355.989C93.5443 330.684 16.7744 270.429 4.30485 231.855C-11.2821 183.637 19.8918 162.777 27.5996 124.99Z" fill="#0F3057"/>
<path d="M297.887 62.9221C263.356 36.1118 286.925 0 312.446 0C400.144 6.15543 374.451 67.5387 360.064 92.1604C337.283 99.3417 332.418 89.7324 297.887 62.9221Z" fill="#0F3057"/>
</svg>
