<svg width="1651" height="525" viewBox="0 0 1651 525" fill="none" xmlns="http://www.w3.org/2000/svg">
<path d="M0 524.128C22.2363 486.102 72.4796 406.34 93.8741 394.754C120.617 380.271 180.548 343.718 206.837 247.102C233.125 150.487 357.938 88.6678 376.887 87.0121C395.836 85.3564 425.245 43.0882 489.566 35.2562C553.886 27.4242 532.7 -29.7875 682.543 20.4123C699.575 30.9216 746.544 49.9936 798.168 42.2077C862.697 32.4753 843.54 58.9075 888.076 60.3326C932.612 61.7576 968.504 97.8352 992.885 92.5228C1017.27 87.2103 1032.92 50.4137 1075.04 57.928C1117.17 65.4423 1155.31 123.287 1220.72 109.035C1284.6 95.1176 1275.86 58.7034 1393.37 68.7089C1396.2 68.9504 1399.11 69.2188 1402.1 69.5153C1438.58 73.1389 1453.52 74.6275 1455.59 74.8404C1474.24 65.1157 1519.01 44.0407 1548.98 37.5111C1592 49.1577 1615.92 42.3631 1650.66 73.1284L1650.54 524.128H0Z" fill="#FEF7EC"/>
</svg>
